<svg width="240" height="200" viewBox="0 0 240 200" fill="none" xmlns="http://www.w3.org/2000/svg">
<path d="M40 33C41.6569 33 43 31.6569 43 30C43 28.3431 41.6569 27 40 27C38.3431 27 37 28.3431 37 30C37 31.6569 38.3431 33 40 33Z" fill="#E0F5F0"/>
<path d="M200 52C201.105 52 202 51.1046 202 50C202 48.8954 201.105 48 200 48C198.895 48 198 48.8954 198 50C198 51.1046 198.895 52 200 52Z" fill="#E0F5F0"/>
<path d="M25 122.5C26.3807 122.5 27.5 121.381 27.5 120C27.5 118.619 26.3807 117.5 25 117.5C23.6193 117.5 22.5 118.619 22.5 120C22.5 121.381 23.6193 122.5 25 122.5Z" fill="#E0F5F0"/>
<path d="M215 143C216.657 143 218 141.657 218 140C218 138.343 216.657 137 215 137C213.343 137 212 138.343 212 140C212 141.657 213.343 143 215 143Z" fill="#E0F5F0"/>
<path d="M122 35H52C40.9543 35 32 43.9543 32 55V105C32 116.046 40.9543 125 52 125H122C133.046 125 142 116.046 142 105V55C142 43.9543 133.046 35 122 35Z" fill="white" stroke="#A8E6CF" stroke-width="1.5"/>
<path d="M52 125L42 145L68 125" fill="white"/>
<path d="M52 125L42 145L68 125" stroke="#A8E6CF" stroke-width="1.5"/>
<path d="M119 58H55C53.3431 58 52 59.3431 52 61C52 62.6569 53.3431 64 55 64H119C120.657 64 122 62.6569 122 61C122 59.3431 120.657 58 119 58Z" fill="#E8F5EE"/>
<path d="M104 72H55C53.3431 72 52 73.3431 52 75C52 76.6569 53.3431 78 55 78H104C105.657 78 107 76.6569 107 75C107 73.3431 105.657 72 104 72Z" fill="#E8F5EE"/>
<path d="M111 86H55C53.3431 86 52 87.3431 52 89C52 90.6569 53.3431 92 55 92H111C112.657 92 114 90.6569 114 89C114 87.3431 112.657 86 111 86Z" fill="#E8F5EE"/>
<path d="M89 100H55C53.3431 100 52 101.343 52 103C52 104.657 53.3431 106 55 106H89C90.6569 106 92 104.657 92 103C92 101.343 90.6569 100 89 100Z" fill="#E8F5EE"/>
<path d="M195 60H120C108.954 60 100 68.9543 100 80V135C100 146.046 108.954 155 120 155H195C206.046 155 215 146.046 215 135V80C215 68.9543 206.046 60 195 60Z" fill="white" stroke="#2ECC9B" stroke-width="2"/>
<path d="M195 155L205 175L180 155" fill="white"/>
<path d="M195 155L205 175L180 155" stroke="#2ECC9B" stroke-width="2"/>
<path d="M157 104C164.732 104 171 97.732 171 90C171 82.268 164.732 76 157 76C149.268 76 143 82.268 143 90C143 97.732 149.268 104 157 104Z" stroke="#2ECC9B" stroke-width="2"/>
<path d="M135 130C135 115 145 108 157 108C169 108 179 115 179 130" stroke="#2ECC9B" stroke-width="2"/>
<path opacity="0.3" d="M182.5 138H132.5C131.119 138 130 139.119 130 140.5C130 141.881 131.119 143 132.5 143H182.5C183.881 143 185 141.881 185 140.5C185 139.119 183.881 138 182.5 138Z" fill="#2ECC9B"/>
<g opacity="0.214707">
<path opacity="0.15" d="M70 30C72.7614 30 75 27.7614 75 25C75 22.2386 72.7614 20 70 20C67.2386 20 65 22.2386 65 25C65 27.7614 67.2386 30 70 30Z" fill="#2ECC9B"/>
</g>
<g opacity="0.035658">
<path opacity="0.15" d="M195 39C197.209 39 199 37.2091 199 35C199 32.7909 197.209 31 195 31C192.791 31 191 32.7909 191 35C191 37.2091 192.791 39 195 39Z" fill="#2ECC9B"/>
</g>
<path d="M207 15H191C187.686 15 185 17.6863 185 21V29C185 32.3137 187.686 35 191 35H207C210.314 35 213 32.3137 213 29V21C213 17.6863 210.314 15 207 15Z" fill="#E0F5F0" stroke="#A8E6CF"/>
<path d="M194 26.5C194.828 26.5 195.5 25.8284 195.5 25C195.5 24.1716 194.828 23.5 194 23.5C193.172 23.5 192.5 24.1716 192.5 25C192.5 25.8284 193.172 26.5 194 26.5Z" fill="#A8E6CF"/>
<path d="M199 26.5C199.828 26.5 200.5 25.8284 200.5 25C200.5 24.1716 199.828 23.5 199 23.5C198.172 23.5 197.5 24.1716 197.5 25C197.5 25.8284 198.172 26.5 199 26.5Z" fill="#A8E6CF"/>
<path d="M204 26.5C204.828 26.5 205.5 25.8284 205.5 25C205.5 24.1716 204.828 23.5 204 23.5C203.172 23.5 202.5 24.1716 202.5 25C202.5 25.8284 203.172 26.5 204 26.5Z" fill="#A8E6CF"/>
<path d="M31 155H17C14.2386 155 12 157.239 12 160V167C12 169.761 14.2386 172 17 172H31C33.7614 172 36 169.761 36 167V160C36 157.239 33.7614 155 31 155Z" fill="#E0F5F0" stroke="#A8E6CF"/>
<path d="M19.9998 164.7C20.6625 164.7 21.1998 164.163 21.1998 163.5C21.1998 162.837 20.6625 162.3 19.9998 162.3C19.3371 162.3 18.7998 162.837 18.7998 163.5C18.7998 164.163 19.3371 164.7 19.9998 164.7Z" fill="#A8E6CF"/>
<path d="M23.9998 164.7C24.6625 164.7 25.1998 164.163 25.1998 163.5C25.1998 162.837 24.6625 162.3 23.9998 162.3C23.3371 162.3 22.7998 162.837 22.7998 163.5C22.7998 164.163 23.3371 164.7 23.9998 164.7Z" fill="#A8E6CF"/>
<path d="M27.9998 164.7C28.6625 164.7 29.1998 164.163 29.1998 163.5C29.1998 162.837 28.6625 162.3 27.9998 162.3C27.3371 162.3 26.7998 162.837 26.7998 163.5C26.7998 164.163 27.3371 164.7 27.9998 164.7Z" fill="#A8E6CF"/>
</svg>
